<mxfile host="app.diagrams.net" modified="2024-06-05T14:40:09.156Z" agent="Mozilla/5.0 (Windows NT 10.0; Win64; x64; rv:126.0) Gecko/20100101 Firefox/126.0" etag="Wwx2myYuFeG_EYiwNN7r" version="24.4.14" type="device">
  <diagram name="Page-1" id="8G-TDpBrZnWFRdwxH2hP">
    <mxGraphModel dx="1050" dy="558" grid="0" gridSize="10" guides="1" tooltips="1" connect="1" arrows="1" fold="1" page="1" pageScale="1" pageWidth="827" pageHeight="1169" math="0" shadow="0">
      <root>
        <mxCell id="0" />
        <mxCell id="1" parent="0" />
        <mxCell id="J0_Lx2hSn_o62kDlmLEp-11" style="edgeStyle=orthogonalEdgeStyle;rounded=0;orthogonalLoop=1;jettySize=auto;html=1;entryX=1;entryY=0.5;entryDx=0;entryDy=0;" parent="1" source="ctMj3vyAkk-ZHn5RQAny-1" target="J0_Lx2hSn_o62kDlmLEp-7" edge="1">
          <mxGeometry relative="1" as="geometry" />
        </mxCell>
        <mxCell id="J0_Lx2hSn_o62kDlmLEp-14" style="rounded=0;orthogonalLoop=1;jettySize=auto;html=1;entryX=1;entryY=1;entryDx=0;entryDy=0;" parent="1" source="ctMj3vyAkk-ZHn5RQAny-1" target="ctMj3vyAkk-ZHn5RQAny-10" edge="1">
          <mxGeometry relative="1" as="geometry" />
        </mxCell>
        <mxCell id="J0_Lx2hSn_o62kDlmLEp-18" style="rounded=0;orthogonalLoop=1;jettySize=auto;html=1;entryX=0;entryY=0.5;entryDx=0;entryDy=0;" parent="1" source="ctMj3vyAkk-ZHn5RQAny-1" target="J0_Lx2hSn_o62kDlmLEp-17" edge="1">
          <mxGeometry relative="1" as="geometry" />
        </mxCell>
        <mxCell id="VbvGt2BMOrRNJoyPszf3-11" style="edgeStyle=orthogonalEdgeStyle;rounded=0;orthogonalLoop=1;jettySize=auto;html=1;exitX=0.5;exitY=0;exitDx=0;exitDy=0;entryX=0.5;entryY=1;entryDx=0;entryDy=0;" parent="1" source="ctMj3vyAkk-ZHn5RQAny-1" target="VbvGt2BMOrRNJoyPszf3-8" edge="1">
          <mxGeometry relative="1" as="geometry" />
        </mxCell>
        <mxCell id="VbvGt2BMOrRNJoyPszf3-12" style="rounded=0;orthogonalLoop=1;jettySize=auto;html=1;exitX=1;exitY=0;exitDx=0;exitDy=0;entryX=0;entryY=0.5;entryDx=0;entryDy=0;" parent="1" source="ctMj3vyAkk-ZHn5RQAny-1" target="VbvGt2BMOrRNJoyPszf3-7" edge="1">
          <mxGeometry relative="1" as="geometry" />
        </mxCell>
        <mxCell id="VbvGt2BMOrRNJoyPszf3-13" style="rounded=0;orthogonalLoop=1;jettySize=auto;html=1;exitX=1;exitY=1;exitDx=0;exitDy=0;entryX=0;entryY=0.5;entryDx=0;entryDy=0;" parent="1" source="ctMj3vyAkk-ZHn5RQAny-1" target="VbvGt2BMOrRNJoyPszf3-9" edge="1">
          <mxGeometry relative="1" as="geometry" />
        </mxCell>
        <mxCell id="VbvGt2BMOrRNJoyPszf3-15" style="edgeStyle=orthogonalEdgeStyle;rounded=0;orthogonalLoop=1;jettySize=auto;html=1;entryX=0.5;entryY=0;entryDx=0;entryDy=0;" parent="1" source="ctMj3vyAkk-ZHn5RQAny-1" target="VbvGt2BMOrRNJoyPszf3-5" edge="1">
          <mxGeometry relative="1" as="geometry" />
        </mxCell>
        <mxCell id="ctMj3vyAkk-ZHn5RQAny-1" value="" style="ellipse;whiteSpace=wrap;html=1;" parent="1" vertex="1">
          <mxGeometry x="329" y="220" width="170" height="90" as="geometry" />
        </mxCell>
        <mxCell id="ctMj3vyAkk-ZHn5RQAny-2" value="&lt;font color=&quot;#000000&quot;&gt;clientReferee&lt;/font&gt;" style="ellipse;whiteSpace=wrap;html=1;movable=1;resizable=1;rotatable=1;deletable=1;editable=1;locked=0;connectable=1;fillColor=#A6A6A6;fontColor=#ffffff;strokeColor=#314354;" parent="1" vertex="1">
          <mxGeometry x="339" y="230" width="150" height="70" as="geometry" />
        </mxCell>
        <mxCell id="ctMj3vyAkk-ZHn5RQAny-10" value="registry" style="ellipse;whiteSpace=wrap;html=1;movable=1;resizable=1;rotatable=1;deletable=1;editable=1;locked=0;connectable=1;" parent="1" vertex="1">
          <mxGeometry x="92" y="85" width="150" height="70" as="geometry" />
        </mxCell>
        <mxCell id="J0_Lx2hSn_o62kDlmLEp-7" value="" style="ellipse;whiteSpace=wrap;html=1;" parent="1" vertex="1">
          <mxGeometry x="84" y="220" width="170" height="90" as="geometry" />
        </mxCell>
        <mxCell id="J0_Lx2hSn_o62kDlmLEp-8" value="LocateRegistry" style="ellipse;whiteSpace=wrap;html=1;movable=1;resizable=1;rotatable=1;deletable=1;editable=1;locked=0;connectable=1;" parent="1" vertex="1">
          <mxGeometry x="94" y="230" width="150" height="70" as="geometry" />
        </mxCell>
        <mxCell id="J0_Lx2hSn_o62kDlmLEp-17" value="playgroundStub" style="ellipse;whiteSpace=wrap;html=1;movable=1;resizable=1;rotatable=1;deletable=1;editable=1;locked=0;connectable=1;" parent="1" vertex="1">
          <mxGeometry x="590" y="230" width="150" height="70" as="geometry" />
        </mxCell>
        <mxCell id="J0_Lx2hSn_o62kDlmLEp-24" value="&lt;b&gt;1&lt;/b&gt;" style="text;html=1;align=center;verticalAlign=middle;resizable=0;points=[];autosize=1;strokeColor=none;fillColor=none;" parent="1" vertex="1">
          <mxGeometry x="305" y="236" width="24" height="26" as="geometry" />
        </mxCell>
        <mxCell id="J0_Lx2hSn_o62kDlmLEp-27" value="&lt;b&gt;2&lt;/b&gt;" style="text;html=1;align=center;verticalAlign=middle;resizable=0;points=[];autosize=1;strokeColor=none;fillColor=none;" parent="1" vertex="1">
          <mxGeometry x="342" y="192" width="24" height="26" as="geometry" />
        </mxCell>
        <mxCell id="VbvGt2BMOrRNJoyPszf3-24" style="rounded=0;orthogonalLoop=1;jettySize=auto;html=1;exitX=0.913;exitY=0.257;exitDx=0;exitDy=0;entryX=0;entryY=1;entryDx=0;entryDy=0;exitPerimeter=0;" parent="1" source="VbvGt2BMOrRNJoyPszf3-5" target="J0_Lx2hSn_o62kDlmLEp-17" edge="1">
          <mxGeometry relative="1" as="geometry" />
        </mxCell>
        <mxCell id="VbvGt2BMOrRNJoyPszf3-5" value="&lt;div&gt;&lt;font color=&quot;#000000&quot;&gt;TReferee&lt;/font&gt;&lt;/div&gt;" style="ellipse;whiteSpace=wrap;html=1;movable=1;resizable=1;rotatable=1;deletable=1;editable=1;locked=0;connectable=1;fillColor=#A6A6A6;fontColor=#ffffff;strokeColor=#314354;" parent="1" vertex="1">
          <mxGeometry x="339" y="362" width="150" height="70" as="geometry" />
        </mxCell>
        <mxCell id="VbvGt2BMOrRNJoyPszf3-7" value="benchStub" style="ellipse;whiteSpace=wrap;html=1;movable=1;resizable=1;rotatable=1;deletable=1;editable=1;locked=0;connectable=1;" parent="1" vertex="1">
          <mxGeometry x="590" y="133" width="150" height="70" as="geometry" />
        </mxCell>
        <mxCell id="VbvGt2BMOrRNJoyPszf3-8" value="reposStub" style="ellipse;whiteSpace=wrap;html=1;movable=1;resizable=1;rotatable=1;deletable=1;editable=1;locked=0;connectable=1;" parent="1" vertex="1">
          <mxGeometry x="339" y="55" width="150" height="70" as="geometry" />
        </mxCell>
        <mxCell id="VbvGt2BMOrRNJoyPszf3-9" value="refereeSiteStub" style="ellipse;whiteSpace=wrap;html=1;movable=1;resizable=1;rotatable=1;deletable=1;editable=1;locked=0;connectable=1;" parent="1" vertex="1">
          <mxGeometry x="590" y="323" width="150" height="70" as="geometry" />
        </mxCell>
        <mxCell id="VbvGt2BMOrRNJoyPszf3-16" value="&lt;b&gt;3&lt;/b&gt;" style="text;html=1;align=center;verticalAlign=middle;resizable=0;points=[];autosize=1;strokeColor=none;fillColor=none;" parent="1" vertex="1">
          <mxGeometry x="414" y="314" width="24" height="26" as="geometry" />
        </mxCell>
        <mxCell id="VbvGt2BMOrRNJoyPszf3-17" value="&lt;b&gt;4&lt;/b&gt;" style="text;html=1;align=center;verticalAlign=middle;resizable=0;points=[];autosize=1;strokeColor=none;fillColor=none;" parent="1" vertex="1">
          <mxGeometry x="414" y="194" width="24" height="26" as="geometry" />
        </mxCell>
        <mxCell id="VbvGt2BMOrRNJoyPszf3-18" value="&lt;b&gt;4&lt;/b&gt;" style="text;html=1;align=center;verticalAlign=middle;resizable=0;points=[];autosize=1;strokeColor=none;fillColor=none;" parent="1" vertex="1">
          <mxGeometry x="497" y="220" width="24" height="26" as="geometry" />
        </mxCell>
        <mxCell id="VbvGt2BMOrRNJoyPszf3-19" value="&lt;b&gt;4&lt;/b&gt;" style="text;html=1;align=center;verticalAlign=middle;resizable=0;points=[];autosize=1;strokeColor=none;fillColor=none;" parent="1" vertex="1">
          <mxGeometry x="503" y="265" width="24" height="26" as="geometry" />
        </mxCell>
        <mxCell id="VbvGt2BMOrRNJoyPszf3-20" value="&lt;b&gt;4&lt;/b&gt;" style="text;html=1;align=center;verticalAlign=middle;resizable=0;points=[];autosize=1;strokeColor=none;fillColor=none;" parent="1" vertex="1">
          <mxGeometry x="469" y="297" width="24" height="26" as="geometry" />
        </mxCell>
        <mxCell id="VbvGt2BMOrRNJoyPszf3-23" style="rounded=0;orthogonalLoop=1;jettySize=auto;html=1;entryX=0.02;entryY=0.671;entryDx=0;entryDy=0;entryPerimeter=0;exitX=1;exitY=0.5;exitDx=0;exitDy=0;" parent="1" source="VbvGt2BMOrRNJoyPszf3-5" target="VbvGt2BMOrRNJoyPszf3-9" edge="1">
          <mxGeometry relative="1" as="geometry" />
        </mxCell>
        <mxCell id="VbvGt2BMOrRNJoyPszf3-26" value="&lt;b&gt;5&lt;/b&gt;" style="text;html=1;align=center;verticalAlign=middle;resizable=0;points=[];autosize=1;strokeColor=none;fillColor=none;" parent="1" vertex="1">
          <mxGeometry x="479" y="345" width="24" height="26" as="geometry" />
        </mxCell>
        <mxCell id="VbvGt2BMOrRNJoyPszf3-27" value="&lt;b&gt;6&lt;/b&gt;" style="text;html=1;align=center;verticalAlign=middle;resizable=0;points=[];autosize=1;strokeColor=none;fillColor=none;" parent="1" vertex="1">
          <mxGeometry x="489" y="371" width="24" height="26" as="geometry" />
        </mxCell>
      </root>
    </mxGraphModel>
  </diagram>
</mxfile>
